<svg width="6" height="10" viewBox="0 0 6 10" fill="none" xmlns="http://www.w3.org/2000/svg">
<path d="M0.125 4.71875C0.0625 4.8125 0.03125 4.90625 0.03125 5C0.03125 5.125 0.0625 5.1875 0.125 5.25L4.71875 9.90625C4.78125 9.96875 4.875 10 4.96875 10C5.0625 10 5.15625 9.96875 5.25 9.875L5.875 9.28125C5.9375 9.21875 5.96875 9.125 5.96875 9C5.96875 8.90625 5.9375 8.8125 5.875 8.75L2.15625 5L5.875 1.25C5.9375 1.1875 5.96875 1.125 5.96875 1C5.96875 0.90625 5.9375 0.8125 5.875 0.71875L5.25 0.09375C5.15625 0.03125 5.0625 0 4.96875 0C4.875 0 4.78125 0.03125 4.71875 0.09375L0.125 4.71875Z" fill="#1D1D1D" fill-opacity="0.4"/>
</svg>
