<svg width="14" height="16" viewBox="0 0 14 16" fill="none" xmlns="http://www.w3.org/2000/svg">
<path d="M7 16C6.4375 16 5.96875 15.8125 5.59375 15.4375C5.1875 15.0625 5 14.5625 5 14H9C9 14.5625 8.78125 15.0625 8.40625 15.4375C8 15.8125 7.53125 16 7 16ZM13.7188 11.3125C13.9062 11.5312 14 11.7812 14 12.0312C14 12.2812 13.9062 12.5312 13.7188 12.7188C13.5312 12.9062 13.2812 13 13 13H1C0.6875 13 0.46875 12.9062 0.28125 12.7188C0.09375 12.5312 0 12.2812 0 12.0312C0 11.7812 0.09375 11.5312 0.28125 11.3125L0.375 11.1875C0.84375 10.6875 1.1875 10.2188 1.4375 9.71875C1.8125 8.90625 2 7.8125 2 6.5C2 5.3125 2.375 4.25 3.125 3.34375C3.875 2.46875 4.8125 1.90625 6 1.65625V1C6 0.75 6.09375 0.5 6.28125 0.3125C6.46875 0.125 6.71875 0 7 0C7.25 0 7.5 0.125 7.6875 0.3125C7.875 0.5 8 0.75 8 1V1.65625C9.15625 1.90625 10.125 2.46875 10.875 3.34375C11.625 4.25 12 5.3125 12 6.5C12 7.8125 12.1875 8.90625 12.5625 9.71875C12.7812 10.2188 13.125 10.6875 13.625 11.1875C13.6562 11.25 13.6875 11.3125 13.7188 11.3125Z" fill="#52565F"/>
</svg>
