<svg width="12" height="12" viewBox="0 0 12 12" fill="none" xmlns="http://www.w3.org/2000/svg">
<path d="M10.875 0.75C11.1797 0.75 11.4375 0.867188 11.6719 1.07812C11.8828 1.3125 12 1.57031 12 1.875V10.125C12 10.4531 11.8828 10.7109 11.6719 10.9219C11.4375 11.1562 11.1797 11.25 10.875 11.25H1.125C0.796875 11.25 0.539062 11.1562 0.328125 10.9219C0.09375 10.7109 0 10.4531 0 10.125V1.875C0 1.57031 0.09375 1.3125 0.328125 1.07812C0.539062 0.867188 0.796875 0.75 1.125 0.75H10.875ZM3 3.46875V2.53125C3 2.46094 2.95312 2.39062 2.90625 2.34375C2.85938 2.29688 2.78906 2.25 2.71875 2.25H1.78125C1.6875 2.25 1.61719 2.29688 1.57031 2.34375C1.52344 2.39062 1.5 2.46094 1.5 2.53125V3.46875C1.5 3.5625 1.52344 3.63281 1.57031 3.67969C1.61719 3.72656 1.6875 3.75 1.78125 3.75H2.71875C2.78906 3.75 2.85938 3.72656 2.90625 3.67969C2.95312 3.63281 3 3.5625 3 3.46875ZM10.5 3.46875V2.53125C10.5 2.46094 10.4531 2.39062 10.4062 2.34375C10.3594 2.29688 10.2891 2.25 10.2188 2.25H4.40625C4.3125 2.25 4.24219 2.29688 4.19531 2.34375C4.14844 2.39062 4.125 2.46094 4.125 2.53125V3.46875C4.125 3.5625 4.14844 3.63281 4.19531 3.67969C4.24219 3.72656 4.3125 3.75 4.40625 3.75H10.2188C10.2891 3.75 10.3594 3.72656 10.4062 3.67969C10.4531 3.63281 10.5 3.5625 10.5 3.46875Z" fill="#1D1D1D"/>
</svg>
