<svg width="14" height="16" viewBox="0 0 14 16" fill="none" xmlns="http://www.w3.org/2000/svg">
<path d="M13.625 15C13.7188 15 13.8125 15.0625 13.875 15.125C13.9375 15.1875 14 15.2812 14 15.375V16H0V15.375C0 15.2812 0.03125 15.1875 0.09375 15.125C0.15625 15.0625 0.25 15 0.375 15H1V0.75C1 0.5625 1.0625 0.375 1.21875 0.21875C1.34375 0.09375 1.53125 0 1.75 0H12.25C12.4375 0 12.625 0.09375 12.7812 0.21875C12.9062 0.375 13 0.5625 13 0.75V15H13.625ZM4 2.375V3.625C4 3.75 4.03125 3.84375 4.09375 3.90625C4.15625 3.96875 4.25 4 4.375 4H5.625C5.71875 4 5.8125 3.96875 5.875 3.90625C5.9375 3.84375 6 3.75 6 3.625V2.375C6 2.28125 5.9375 2.1875 5.875 2.125C5.8125 2.0625 5.71875 2 5.625 2H4.375C4.25 2 4.15625 2.0625 4.09375 2.125C4.03125 2.1875 4 2.28125 4 2.375ZM4 5.375V6.625C4 6.75 4.03125 6.84375 4.09375 6.90625C4.15625 6.96875 4.25 7 4.375 7H5.625C5.71875 7 5.8125 6.96875 5.875 6.90625C5.9375 6.84375 6 6.75 6 6.625V5.375C6 5.28125 5.9375 5.1875 5.875 5.125C5.8125 5.0625 5.71875 5 5.625 5H4.375C4.25 5 4.15625 5.0625 4.09375 5.125C4.03125 5.1875 4 5.28125 4 5.375ZM5.625 10C5.71875 10 5.8125 9.96875 5.875 9.90625C5.9375 9.84375 6 9.75 6 9.625V8.375C6 8.28125 5.9375 8.1875 5.875 8.125C5.8125 8.0625 5.71875 8 5.625 8H4.375C4.25 8 4.15625 8.0625 4.09375 8.125C4.03125 8.1875 4 8.28125 4 8.375V9.625C4 9.75 4.03125 9.84375 4.09375 9.90625C4.15625 9.96875 4.25 10 4.375 10H5.625ZM8 15V12.375C8 12.2812 7.9375 12.1875 7.875 12.125C7.8125 12.0625 7.71875 12 7.625 12H6.375C6.25 12 6.15625 12.0625 6.09375 12.125C6.03125 12.1875 6 12.2812 6 12.375V15H8ZM10 9.625V8.375C10 8.28125 9.9375 8.1875 9.875 8.125C9.8125 8.0625 9.71875 8 9.625 8H8.375C8.25 8 8.15625 8.0625 8.09375 8.125C8.03125 8.1875 8 8.28125 8 8.375V9.625C8 9.75 8.03125 9.84375 8.09375 9.90625C8.15625 9.96875 8.25 10 8.375 10H9.625C9.71875 10 9.8125 9.96875 9.875 9.90625C9.9375 9.84375 10 9.75 10 9.625ZM10 6.625V5.375C10 5.28125 9.9375 5.1875 9.875 5.125C9.8125 5.0625 9.71875 5 9.625 5H8.375C8.25 5 8.15625 5.0625 8.09375 5.125C8.03125 5.1875 8 5.28125 8 5.375V6.625C8 6.75 8.03125 6.84375 8.09375 6.90625C8.15625 6.96875 8.25 7 8.375 7H9.625C9.71875 7 9.8125 6.96875 9.875 6.90625C9.9375 6.84375 10 6.75 10 6.625ZM10 3.625V2.375C10 2.28125 9.9375 2.1875 9.875 2.125C9.8125 2.0625 9.71875 2 9.625 2H8.375C8.25 2 8.15625 2.0625 8.09375 2.125C8.03125 2.1875 8 2.28125 8 2.375V3.625C8 3.75 8.03125 3.84375 8.09375 3.90625C8.15625 3.96875 8.25 4 8.375 4H9.625C9.71875 4 9.8125 3.96875 9.875 3.90625C9.9375 3.84375 10 3.75 10 3.625Z" fill="white"/>
</svg>
