<svg width="24" height="24" viewBox="0 0 24 24" fill="none" xmlns="http://www.w3.org/2000/svg">
<rect width="24" height="24" rx="12" fill="#FFB700"/>
<path d="M16.25 10.875C16.4375 10.875 16.625 10.9688 16.7656 11.1094C16.9062 11.25 17 11.4375 17 11.625V12.375C17 12.5859 16.9062 12.7734 16.7656 12.9141C16.625 13.0547 16.4375 13.125 16.25 13.125H12.875V16.5C12.875 16.7109 12.7812 16.8984 12.6406 17.0391C12.5 17.1797 12.3125 17.25 12.125 17.25H11.375C11.1641 17.25 10.9766 17.1797 10.8359 17.0391C10.6953 16.8984 10.625 16.7109 10.625 16.5V13.125H7.25C7.03906 13.125 6.85156 13.0547 6.71094 12.9141C6.57031 12.7734 6.5 12.5859 6.5 12.375V11.625C6.5 11.4375 6.57031 11.25 6.71094 11.1094C6.85156 10.9688 7.03906 10.875 7.25 10.875H10.625V7.5C10.625 7.3125 10.6953 7.125 10.8359 6.98438C10.9766 6.84375 11.1641 6.75 11.375 6.75H12.125C12.3125 6.75 12.5 6.84375 12.6406 6.98438C12.7812 7.125 12.875 7.3125 12.875 7.5V10.875H16.25Z" fill="white"/>
</svg>
