<svg width="112" height="24" viewBox="0 0 112 24" fill="none" xmlns="http://www.w3.org/2000/svg">
<rect y="0.125" width="78.875" height="13" fill="#0D87FF"/>
<path d="M5.70103 9.544C6.0837 9.544 6.4897 9.502 6.91903 9.418C7.3577 9.334 7.7497 9.222 8.09503 9.082V10.58C7.5817 10.7853 7.1197 10.9253 6.70903 11C6.3077 11.084 5.8877 11.126 5.44903 11.126C4.05836 11.126 3.0877 10.7807 2.53703 10.09C1.98636 9.39 1.71103 8.22333 1.71103 6.59C1.71103 5.03133 2.0377 3.89267 2.69103 3.174C3.34436 2.446 4.39436 2.082 5.84103 2.082C6.27036 2.082 6.65303 2.09133 6.98903 2.11C7.32503 2.12867 7.62836 2.16133 7.89903 2.208V3.678C7.54436 3.65 7.19903 3.63133 6.86303 3.622C6.53636 3.60333 6.1957 3.594 5.84103 3.594C4.89836 3.594 4.25903 3.81333 3.92303 4.252C3.59636 4.69067 3.43303 5.47 3.43303 6.59C3.43303 7.71 3.58236 8.48467 3.88103 8.914C4.18903 9.334 4.7957 9.544 5.70103 9.544ZM13.7048 8.004V11H12.0248V2.222H15.1188C16.4161 2.222 17.3401 2.44133 17.8908 2.88C18.4508 3.31867 18.7308 4.05133 18.7308 5.078C18.7308 5.81533 18.5674 6.41267 18.2408 6.87C17.9234 7.318 17.4381 7.63067 16.7848 7.808L18.9968 11H16.9808L15.0068 8.004H13.7048ZM17.0228 5.078C17.0228 4.59267 16.8781 4.24733 16.5888 4.042C16.3088 3.83667 15.8188 3.734 15.1188 3.734H13.7048V6.604H15.1188C15.8188 6.604 16.3088 6.48733 16.5888 6.254C16.8781 6.02067 17.0228 5.62867 17.0228 5.078ZM28.8408 9.418V11H22.9048V2.222H28.7148V3.734H24.5848V5.806H28.1968V7.248H24.5848V9.418H28.8408ZM33.8622 11H32.0982L35.4582 2.222H37.1942L40.4983 11H38.7343L38.1042 9.208H34.4782L33.8622 11ZM36.2842 3.832C36.1816 4.18667 36.0649 4.56 35.9342 4.952C35.8129 5.344 35.6962 5.708 35.5842 6.044L34.9682 7.822H37.6142L36.9982 6.044C36.8956 5.74533 36.7789 5.4 36.6482 5.008C36.5176 4.60667 36.3962 4.21467 36.2842 3.832ZM49.3527 2.222V3.734H46.6927V11H45.0127V3.734H42.3667V2.222H49.3527ZM54.8598 2.222V11H53.1798V2.222H54.8598ZM61.7091 11L58.5451 2.222H60.4211L62.0731 7.164C62.1571 7.416 62.2551 7.75667 62.3671 8.186C62.4885 8.606 62.6145 9.082 62.7451 9.614C62.8758 9.07267 62.9971 8.592 63.1091 8.172C63.2305 7.752 63.3285 7.42067 63.4031 7.178L65.0551 2.222H66.8751L63.7111 11H61.7091ZM76.4873 9.418V11H70.5513V2.222H76.3613V3.734H72.2313V5.806H75.8433V7.248H72.2313V9.418H76.4873Z" fill="white"/>
<path d="M3.72703 20.34V23H2.04703V14.222H5.14103C6.43836 14.222 7.36236 14.4507 7.91303 14.908C8.47303 15.3653 8.75303 16.126 8.75303 17.19C8.75303 18.2633 8.45903 19.0567 7.87103 19.57C7.29236 20.0833 6.39636 20.34 5.18303 20.34H3.72703ZM7.04503 17.19C7.04503 16.658 6.90036 16.2847 6.61103 16.07C6.33103 15.846 5.84103 15.734 5.14103 15.734H3.72703V18.87H5.14103C5.84103 18.87 6.33103 18.744 6.61103 18.492C6.90036 18.2307 7.04503 17.7967 7.04503 17.19ZM20.4224 18.59C20.4224 20.186 20.105 21.3433 19.4704 22.062C18.845 22.7713 17.823 23.126 16.4044 23.126C14.8924 23.126 13.8424 22.7947 13.2544 22.132C12.6664 21.46 12.3724 20.2793 12.3724 18.59C12.3724 17.0033 12.6897 15.8553 13.3244 15.146C13.959 14.4367 14.9857 14.082 16.4044 14.082C17.907 14.082 18.9524 14.418 19.5404 15.09C20.1284 15.7527 20.4224 16.9193 20.4224 18.59ZM14.4164 20.802C14.5657 21.0727 14.785 21.264 15.0744 21.376C15.3637 21.488 15.807 21.544 16.4044 21.544C17.3284 21.544 17.9444 21.3387 18.2524 20.928C18.5604 20.508 18.7144 19.7287 18.7144 18.59C18.7144 18.0393 18.6864 17.5867 18.6304 17.232C18.5837 16.8773 18.4997 16.588 18.3784 16.364C18.229 16.084 18.0097 15.888 17.7204 15.776C17.431 15.6547 16.9924 15.594 16.4044 15.594C15.471 15.594 14.8504 15.804 14.5424 16.224C14.2344 16.644 14.0804 17.4327 14.0804 18.59C14.0804 19.1407 14.1084 19.5933 14.1644 19.948C14.2204 20.3027 14.3044 20.5873 14.4164 20.802ZM26.2528 20.004V23H24.5728V14.222H27.6668C28.9641 14.222 29.8881 14.4413 30.4388 14.88C30.9988 15.3187 31.2788 16.0513 31.2788 17.078C31.2788 17.8153 31.1155 18.4127 30.7888 18.87C30.4715 19.318 29.9861 19.6307 29.3328 19.808L31.5448 23H29.5288L27.5548 20.004H26.2528ZM29.5708 17.078C29.5708 16.5927 29.4261 16.2473 29.1368 16.042C28.8568 15.8367 28.3668 15.734 27.6668 15.734H26.2528V18.604H27.6668C28.3668 18.604 28.8568 18.4873 29.1368 18.254C29.4261 18.0207 29.5708 17.6287 29.5708 17.078ZM41.6718 14.222V15.734H39.0118V23H37.3318V15.734H34.6858V14.222H41.6718ZM48.7633 19.514L46.8173 19.052C46.1733 18.9027 45.7206 18.66 45.4593 18.324C45.1979 17.9787 45.0673 17.4887 45.0673 16.854C45.0673 15.902 45.3286 15.202 45.8513 14.754C46.3739 14.306 47.1859 14.082 48.2873 14.082C48.7446 14.082 49.1506 14.1053 49.5053 14.152C49.8693 14.1893 50.2053 14.25 50.5133 14.334V15.846C49.9813 15.7433 49.5566 15.678 49.2393 15.65C48.9219 15.6127 48.5953 15.594 48.2593 15.594C47.6993 15.594 47.3026 15.6827 47.0693 15.86C46.8359 16.028 46.7193 16.322 46.7193 16.742C46.7193 16.9847 46.7659 17.1713 46.8593 17.302C46.9619 17.4233 47.1299 17.512 47.3633 17.568L49.2533 18.016C49.6919 18.1187 50.0186 18.226 50.2333 18.338C50.4479 18.4407 50.6253 18.5713 50.7653 18.73C50.9053 18.9073 51.0079 19.1267 51.0733 19.388C51.1479 19.6493 51.1853 19.9713 51.1853 20.354C51.1853 21.3433 50.9239 22.0527 50.4013 22.482C49.8786 22.9113 49.0666 23.126 47.9653 23.126C47.3959 23.126 46.8453 23.0887 46.3133 23.014C45.7906 22.9393 45.3799 22.846 45.0813 22.734V21.152C45.4826 21.2733 45.9353 21.3713 46.4393 21.446C46.9526 21.5113 47.4613 21.544 47.9653 21.544C48.5159 21.544 48.8986 21.4693 49.1133 21.32C49.3373 21.1613 49.4493 20.858 49.4493 20.41C49.4493 20.13 49.4026 19.9293 49.3093 19.808C49.2253 19.6773 49.0433 19.5793 48.7633 19.514ZM63.7023 14.222V23H62.1203V16.91L60.1183 21.278H58.7323L56.7443 16.896V23H55.1623V14.222H57.2343L59.4603 19.22L61.7003 14.222H63.7023ZM75.9028 18.59C75.9028 20.186 75.5855 21.3433 74.9508 22.062C74.3255 22.7713 73.3035 23.126 71.8848 23.126C70.3728 23.126 69.3228 22.7947 68.7348 22.132C68.1468 21.46 67.8528 20.2793 67.8528 18.59C67.8528 17.0033 68.1702 15.8553 68.8048 15.146C69.4395 14.4367 70.4662 14.082 71.8848 14.082C73.3875 14.082 74.4328 14.418 75.0208 15.09C75.6088 15.7527 75.9028 16.9193 75.9028 18.59ZM69.8968 20.802C70.0462 21.0727 70.2655 21.264 70.5548 21.376C70.8442 21.488 71.2875 21.544 71.8848 21.544C72.8088 21.544 73.4248 21.3387 73.7328 20.928C74.0408 20.508 74.1948 19.7287 74.1948 18.59C74.1948 18.0393 74.1668 17.5867 74.1108 17.232C74.0642 16.8773 73.9802 16.588 73.8588 16.364C73.7095 16.084 73.4902 15.888 73.2008 15.776C72.9115 15.6547 72.4728 15.594 71.8848 15.594C70.9515 15.594 70.3308 15.804 70.0228 16.224C69.7148 16.644 69.5608 17.4327 69.5608 18.59C69.5608 19.1407 69.5888 19.5933 69.6448 19.948C69.7008 20.3027 69.7848 20.5873 69.8968 20.802ZM85.5693 19.402V14.222H87.2493V19.402C87.2493 20.662 86.9506 21.6 86.3533 22.216C85.7559 22.8227 84.8413 23.126 83.6093 23.126C82.3493 23.126 81.4299 22.832 80.8513 22.244C80.2726 21.656 79.9833 20.7087 79.9833 19.402V14.222H81.6633V19.402C81.6633 20.2233 81.8033 20.788 82.0833 21.096C82.3633 21.3947 82.8719 21.544 83.6093 21.544C84.3559 21.544 84.8693 21.39 85.1493 21.082C85.4293 20.774 85.5693 20.214 85.5693 19.402ZM98 14.222V15.734H95.34V23H93.66V15.734H91.014V14.222H98ZM103.507 23H101.827V14.222H103.507V17.778H107.343V14.222H109.023V23H107.343V19.304H103.507V23Z" fill="black"/>
</svg>
