<svg width="6" height="17" viewBox="0 0 6 17" fill="none" xmlns="http://www.w3.org/2000/svg">
<path d="M3 6.25C2.375 6.25 1.84375 6.46875 1.40625 6.90625C0.96875 7.34375 0.75 7.875 0.75 8.5C0.75 9.125 0.96875 9.65625 1.40625 10.0938C1.84375 10.5312 2.375 10.75 3 10.75C3.625 10.75 4.15625 10.5312 4.59375 10.0938C5.03125 9.65625 5.25 9.125 5.25 8.5C5.25 7.875 5.03125 7.34375 4.59375 6.90625C4.15625 6.46875 3.625 6.25 3 6.25ZM0.75 3C0.75 2.375 0.96875 1.84375 1.40625 1.40625C1.84375 0.96875 2.375 0.75 3 0.75C3.625 0.75 4.15625 0.96875 4.59375 1.40625C5.03125 1.84375 5.25 2.375 5.25 3C5.25 3.625 5.03125 4.15625 4.59375 4.59375C4.15625 5.03125 3.625 5.25 3 5.25C2.375 5.25 1.84375 5.03125 1.40625 4.59375C0.96875 4.15625 0.75 3.625 0.75 3ZM0.75 14C0.75 13.375 0.96875 12.8438 1.40625 12.4062C1.84375 11.9688 2.375 11.75 3 11.75C3.625 11.75 4.15625 11.9688 4.59375 12.4062C5.03125 12.8438 5.25 13.375 5.25 14C5.25 14.625 5.03125 15.1562 4.59375 15.5938C4.15625 16.0312 3.625 16.25 3 16.25C2.375 16.25 1.84375 16.0312 1.40625 15.5938C0.96875 15.1562 0.75 14.625 0.75 14Z" fill="#52565F"/>
</svg>
