<svg width="16" height="6" viewBox="0 0 16 6" fill="none" xmlns="http://www.w3.org/2000/svg">
<path d="M10.25 3C10.25 2.375 10.0312 1.84375 9.59375 1.40625C9.15625 0.96875 8.625 0.75 8 0.75C7.375 0.75 6.84375 0.96875 6.40625 1.40625C5.96875 1.84375 5.75 2.375 5.75 3C5.75 3.625 5.96875 4.15625 6.40625 4.59375C6.84375 5.03125 7.375 5.25 8 5.25C8.625 5.25 9.15625 5.03125 9.59375 4.59375C10.0312 4.15625 10.25 3.625 10.25 3ZM13.5 0.75C14.125 0.75 14.6562 0.96875 15.0938 1.40625C15.5312 1.84375 15.75 2.375 15.75 3C15.75 3.625 15.5312 4.15625 15.0938 4.59375C14.6562 5.03125 14.125 5.25 13.5 5.25C12.875 5.25 12.3438 5.03125 11.9062 4.59375C11.4688 4.15625 11.25 3.625 11.25 3C11.25 2.375 11.4688 1.84375 11.9062 1.40625C12.3438 0.96875 12.875 0.75 13.5 0.75ZM2.5 0.75C3.125 0.75 3.65625 0.96875 4.09375 1.40625C4.53125 1.84375 4.75 2.375 4.75 3C4.75 3.625 4.53125 4.15625 4.09375 4.59375C3.65625 5.03125 3.125 5.25 2.5 5.25C1.875 5.25 1.34375 5.03125 0.90625 4.59375C0.46875 4.15625 0.25 3.625 0.25 3C0.25 2.375 0.46875 1.84375 0.90625 1.40625C1.34375 0.96875 1.875 0.75 2.5 0.75Z" fill="white"/>
</svg>
