<svg width="24" height="24" viewBox="0 0 24 24" fill="none" xmlns="http://www.w3.org/2000/svg">
<rect width="24" height="24" rx="12" fill="#52565F"/>
<path d="M17.7656 10.9766C17.2031 11.4219 15.9844 12.3125 14.1562 13.625L13.9219 13.8125C13.5469 14.0938 13.2656 14.3047 13.0312 14.4219C12.6562 14.6562 12.3047 14.75 12 14.75C11.6719 14.75 11.3438 14.6562 10.9688 14.4453C10.7344 14.3281 10.4531 14.1172 10.0781 13.8359L9.84375 13.625C7.94531 12.2656 6.75 11.375 6.23438 10.9766C6.1875 10.9531 6.11719 10.9531 6.07031 10.9766C6.02344 11 6 11.0469 6 11.0938V15.875C6 16.2031 6.09375 16.4609 6.32812 16.6719C6.53906 16.9062 6.79688 17 7.125 17H16.875C17.1797 17 17.4375 16.9062 17.6719 16.6719C17.8828 16.4609 18 16.2031 18 15.875V11.0938C18 11.0469 17.9531 11 17.9062 10.9531C17.8594 10.9297 17.8125 10.9297 17.7656 10.9766ZM12 14C11.7891 14 11.5312 13.9062 11.25 13.7188C11.0625 13.625 10.8281 13.4609 10.5234 13.2031L10.2891 13.0391C8.36719 11.6328 7.05469 10.6719 6.375 10.1328L6.21094 10.0156C6.07031 9.92188 6 9.75781 6 9.57031V9.125C6 8.82031 6.09375 8.5625 6.32812 8.32812C6.53906 8.11719 6.79688 8 7.125 8H16.875C17.1797 8 17.4375 8.11719 17.6719 8.32812C17.8828 8.5625 18 8.82031 18 9.125V9.57031C18 9.75781 17.9297 9.92188 17.7891 10.0156L17.6719 10.1094C16.9922 10.6484 15.6797 11.6328 13.7109 13.0391L13.4766 13.2031C13.1484 13.4609 12.9141 13.625 12.75 13.7188C12.4453 13.9062 12.1875 14 12 14Z" fill="white"/>
</svg>
