<svg width="12" height="10" viewBox="0 0 12 10" fill="none" xmlns="http://www.w3.org/2000/svg">
<path d="M11.7656 3.47656C11.2031 3.92188 9.98438 4.8125 8.15625 6.125L7.92188 6.3125C7.54688 6.59375 7.26562 6.80469 7.03125 6.92188C6.65625 7.15625 6.30469 7.25 6 7.25C5.67188 7.25 5.34375 7.15625 4.96875 6.94531C4.73438 6.82812 4.45312 6.61719 4.07812 6.33594L3.84375 6.125C1.94531 4.76562 0.75 3.875 0.234375 3.47656C0.1875 3.45312 0.117188 3.45312 0.0703125 3.47656C0.0234375 3.5 0 3.54688 0 3.59375V8.375C0 8.70312 0.09375 8.96094 0.328125 9.17188C0.539062 9.40625 0.796875 9.5 1.125 9.5H10.875C11.1797 9.5 11.4375 9.40625 11.6719 9.17188C11.8828 8.96094 12 8.70312 12 8.375V3.59375C12 3.54688 11.9531 3.5 11.9062 3.45312C11.8594 3.42969 11.8125 3.42969 11.7656 3.47656ZM6 6.5C5.78906 6.5 5.53125 6.40625 5.25 6.21875C5.0625 6.125 4.82812 5.96094 4.52344 5.70312L4.28906 5.53906C2.36719 4.13281 1.05469 3.17188 0.375 2.63281L0.210938 2.51562C0.0703125 2.42188 0 2.25781 0 2.07031V1.625C0 1.32031 0.09375 1.0625 0.328125 0.828125C0.539062 0.617188 0.796875 0.5 1.125 0.5H10.875C11.1797 0.5 11.4375 0.617188 11.6719 0.828125C11.8828 1.0625 12 1.32031 12 1.625V2.07031C12 2.25781 11.9297 2.42188 11.7891 2.51562L11.6719 2.60938C10.9922 3.14844 9.67969 4.13281 7.71094 5.53906L7.47656 5.70312C7.14844 5.96094 6.91406 6.125 6.75 6.21875C6.44531 6.40625 6.1875 6.5 6 6.5Z" fill="#1D1D1D"/>
</svg>
