<svg width="24" height="24" viewBox="0 0 24 24" fill="none" xmlns="http://www.w3.org/2000/svg">
<rect width="24" height="24" rx="12" fill="#1D1D1D"/>
<path d="M16.4375 13.3359C16.4375 13.2422 16.3906 13.1719 16.3438 13.1016L11.9375 9.49219C11.8672 9.44531 11.7969 9.42188 11.75 9.42188C11.6797 9.42188 11.6094 9.44531 11.5625 9.49219L7.15625 13.1016C7.08594 13.1719 7.0625 13.2422 7.0625 13.3359V16.6875C7.0625 16.8516 7.10938 16.9922 7.22656 17.0859C7.32031 17.2031 7.46094 17.25 7.625 17.25H10.3438C10.4141 17.25 10.4844 17.2266 10.5312 17.1797C10.5781 17.1328 10.625 17.0625 10.625 16.9688V14.3438C10.625 14.2734 10.6484 14.2031 10.6953 14.1562C10.7422 14.1094 10.8125 14.0625 10.9062 14.0625H12.5938C12.6641 14.0625 12.7344 14.1094 12.7812 14.1562C12.8281 14.2031 12.875 14.2734 12.875 14.3438V16.9688C12.875 17.0625 12.8984 17.1328 12.9453 17.1797C12.9922 17.2266 13.0625 17.25 13.1562 17.25H15.875C16.0156 17.25 16.1562 17.2031 16.2734 17.0859C16.3672 16.9922 16.4375 16.8516 16.4375 16.6875V13.3359ZM18.4062 11.9062C18.4531 11.9531 18.4766 12.0234 18.4766 12.0938C18.4766 12.1875 18.4766 12.2578 18.4297 12.3047L17.8438 13.0312C17.7969 13.1016 17.7266 13.125 17.6562 13.125C17.5625 13.125 17.4922 13.1016 17.4453 13.0547L11.9375 8.53125C11.8672 8.48438 11.7969 8.46094 11.75 8.46094C11.6797 8.46094 11.6094 8.48438 11.5625 8.53125L6.05469 13.0547C5.98438 13.1016 5.91406 13.125 5.84375 13.125C5.75 13.125 5.70312 13.1016 5.65625 13.0312L5.07031 12.3047C5.02344 12.2578 5 12.1875 5 12.0938C5 12.0234 5.04688 11.9531 5.09375 11.9062L11.0469 7.00781C11.2344 6.84375 11.4688 6.75 11.75 6.75C12.0078 6.75 12.2422 6.84375 12.4766 7.00781L14.5625 8.74219V7.03125C14.5625 6.96094 14.5859 6.89062 14.6328 6.84375C14.6797 6.79688 14.75 6.75 14.8438 6.75H16.1562C16.2266 6.75 16.2969 6.79688 16.3438 6.84375C16.3906 6.89062 16.4375 6.96094 16.4375 7.03125V10.2891L18.4062 11.9062Z" fill="white"/>
</svg>
