<svg width="24" height="24" viewBox="0 0 24 24" fill="none" xmlns="http://www.w3.org/2000/svg">
<rect width="24" height="24" rx="12" fill="#57BF56"/>
<path d="M9 9.21875C9 9.33594 9.02344 9.42969 9.09375 9.5C9.16406 9.57031 9.25781 9.59375 9.375 9.59375H17.625C17.7188 9.59375 17.8125 9.57031 17.8828 9.5C17.9531 9.42969 18 9.33594 18 9.21875V8.28125C18 8.1875 17.9531 8.09375 17.8828 8.02344C17.8125 7.95312 17.7188 7.90625 17.625 7.90625H9.375C9.25781 7.90625 9.16406 7.95312 9.09375 8.02344C9.02344 8.09375 9 8.1875 9 8.28125V9.21875ZM9.375 13.3438C9.25781 13.3438 9.16406 13.3203 9.09375 13.25C9.02344 13.1797 9 13.0859 9 12.9688V12.0312C9 11.9375 9.02344 11.8438 9.09375 11.7734C9.16406 11.7031 9.25781 11.6562 9.375 11.6562H17.625C17.7188 11.6562 17.8125 11.7031 17.8828 11.7734C17.9531 11.8438 18 11.9375 18 12.0312V12.9688C18 13.0859 17.9531 13.1797 17.8828 13.25C17.8125 13.3203 17.7188 13.3438 17.625 13.3438H9.375ZM9.375 17.0938C9.25781 17.0938 9.16406 17.0703 9.09375 17C9.02344 16.9297 9 16.8359 9 16.7188V15.7812C9 15.6875 9.02344 15.5938 9.09375 15.5234C9.16406 15.4531 9.25781 15.4062 9.375 15.4062H17.625C17.7188 15.4062 17.8125 15.4531 17.8828 15.5234C17.9531 15.5938 18 15.6875 18 15.7812V16.7188C18 16.8359 17.9531 16.9297 17.8828 17C17.8125 17.0703 17.7188 17.0938 17.625 17.0938H9.375ZM6.375 9.875C6.25781 9.875 6.16406 9.85156 6.09375 9.78125C6.02344 9.71094 6 9.61719 6 9.5V8C6 7.90625 6.02344 7.8125 6.09375 7.74219C6.16406 7.67188 6.25781 7.625 6.375 7.625H7.875C7.96875 7.625 8.0625 7.67188 8.13281 7.74219C8.20312 7.8125 8.25 7.90625 8.25 8V9.5C8.25 9.61719 8.20312 9.71094 8.13281 9.78125C8.0625 9.85156 7.96875 9.875 7.875 9.875H6.375ZM6.375 13.625C6.25781 13.625 6.16406 13.6016 6.09375 13.5312C6.02344 13.4609 6 13.3672 6 13.25V11.75C6 11.6562 6.02344 11.5625 6.09375 11.4922C6.16406 11.4219 6.25781 11.375 6.375 11.375H7.875C7.96875 11.375 8.0625 11.4219 8.13281 11.4922C8.20312 11.5625 8.25 11.6562 8.25 11.75V13.25C8.25 13.3672 8.20312 13.4609 8.13281 13.5312C8.0625 13.6016 7.96875 13.625 7.875 13.625H6.375ZM6.375 17.375C6.25781 17.375 6.16406 17.3516 6.09375 17.2812C6.02344 17.2109 6 17.1172 6 17V15.5C6 15.4062 6.02344 15.3125 6.09375 15.2422C6.16406 15.1719 6.25781 15.125 6.375 15.125H7.875C7.96875 15.125 8.0625 15.1719 8.13281 15.2422C8.20312 15.3125 8.25 15.4062 8.25 15.5V17C8.25 17.1172 8.20312 17.2109 8.13281 17.2812C8.0625 17.3516 7.96875 17.375 7.875 17.375H6.375Z" fill="white"/>
</svg>
