<svg width="9" height="13" viewBox="0 0 9 13" fill="none" xmlns="http://www.w3.org/2000/svg">
<path d="M4.03125 12.2656C4.125 12.4297 4.28906 12.5 4.5 12.5C4.6875 12.5 4.85156 12.4297 4.96875 12.2656L6.53906 10.0156C7.3125 8.89062 7.82812 8.14062 8.08594 7.74219C8.4375 7.17969 8.67188 6.71094 8.8125 6.33594C8.92969 5.96094 9 5.51562 9 5C9 4.20312 8.78906 3.45312 8.39062 2.75C7.96875 2.07031 7.42969 1.53125 6.75 1.10938C6.04688 0.710938 5.29688 0.5 4.5 0.5C3.67969 0.5 2.92969 0.710938 2.25 1.10938C1.54688 1.53125 1.00781 2.07031 0.609375 2.75C0.1875 3.45312 0 4.20312 0 5C0 5.51562 0.046875 5.96094 0.1875 6.33594C0.304688 6.71094 0.539062 7.17969 0.914062 7.74219C1.14844 8.14062 1.66406 8.89062 2.46094 10.0156C3.09375 10.9297 3.60938 11.6797 4.03125 12.2656ZM4.5 6.875C3.98438 6.875 3.53906 6.71094 3.16406 6.33594C2.78906 5.96094 2.625 5.51562 2.625 5C2.625 4.48438 2.78906 4.0625 3.16406 3.6875C3.53906 3.3125 3.98438 3.125 4.5 3.125C5.01562 3.125 5.4375 3.3125 5.8125 3.6875C6.1875 4.0625 6.375 4.48438 6.375 5C6.375 5.51562 6.1875 5.96094 5.8125 6.33594C5.4375 6.71094 5.01562 6.875 4.5 6.875Z" fill="#1D1D1D"/>
</svg>
