<svg width="24" height="24" viewBox="0 0 24 24" fill="none" xmlns="http://www.w3.org/2000/svg">
<rect width="24" height="24" rx="12" fill="#1D1D1D"/>
<path d="M5 8.76562C5 8.625 5.02344 8.48438 5.11719 8.34375C5.21094 8.22656 5.32812 8.13281 5.46875 8.0625L8.75 6.75V15.75L5.51562 17.2266C5.375 17.2734 5.25781 17.2734 5.16406 17.1797C5.04688 17.1094 5 17.0156 5 16.875V8.76562ZM9.5 15.75V6.75L14 8.25V17.25L9.5 15.75ZM17.9844 6.77344C18.1016 6.72656 18.2188 6.75 18.3359 6.82031C18.4297 6.91406 18.5 7.00781 18.5 7.125V15.2344C18.5 15.3984 18.4531 15.5391 18.3594 15.6562C18.2656 15.7969 18.1719 15.8906 18.0312 15.9375L14.75 17.25V8.25L17.9844 6.77344Z" fill="white"/>
</svg>
