<svg width="12" height="16" viewBox="0 0 12 16" fill="none" xmlns="http://www.w3.org/2000/svg">
<path d="M11.5 14C11.625 14 11.75 14.0625 11.8438 14.1562C11.9375 14.25 12 14.375 12 14.5V15.5C12 15.6562 11.9375 15.7812 11.8438 15.875C11.75 15.9688 11.625 16 11.5 16H0.5C0.34375 16 0.21875 15.9688 0.125 15.875C0.03125 15.7812 0 15.6562 0 15.5V14.5C0 14.375 0.03125 14.25 0.125 14.1562C0.21875 14.0625 0.34375 14 0.5 14H11.5ZM9.03125 3.15625L10 13H2L2.96875 3.15625C2.96875 2.90625 3.0625 2.71875 3.25 2.53125L5.65625 0.15625C5.71875 0.0625 5.84375 0 6 0C6.125 0 6.25 0.0625 6.34375 0.15625L8.75 2.53125C8.90625 2.71875 9 2.90625 9.03125 3.15625ZM7.5 9.59375V8.40625C7.5 8.3125 7.4375 8.21875 7.375 8.125C7.28125 8.0625 7.1875 8 7.09375 8H4.90625C4.78125 8 4.6875 8.0625 4.625 8.125C4.53125 8.21875 4.5 8.3125 4.5 8.40625V9.59375C4.5 9.71875 4.53125 9.8125 4.625 9.875C4.6875 9.96875 4.78125 10 4.90625 10H7.09375C7.1875 10 7.28125 9.96875 7.375 9.875C7.4375 9.8125 7.5 9.71875 7.5 9.59375Z" fill="white"/>
</svg>
