<svg width="17" height="17" viewBox="0 0 17 17" fill="none" xmlns="http://www.w3.org/2000/svg">
<path d="M7.375 0.15625C9.03125 -0.15625 10.625 0 12.1562 0.65625C13.5938 1.28125 14.75 2.25 15.6562 3.5625C16.5312 4.875 17 6.34375 17 7.96875C17 8.53125 16.7812 9.03125 16.4062 9.40625C16 9.8125 15.5312 10 14.9688 10H12.4688C11.9688 10 11.5 10.1562 11.125 10.4688C10.75 10.7812 10.5 11.1875 10.375 11.6562C10.25 12.1562 10.3438 12.625 10.5938 13.0625C10.7812 13.4688 10.8438 13.875 10.7812 14.2812C10.7188 14.7188 10.5312 15.0625 10.2812 15.375C10 15.6875 9.65625 15.875 9.25 15.9375C8.25 16.0938 7.21875 15.9688 6.15625 15.5312C5.0625 15.0938 4.09375 14.4375 3.28125 13.5625C2.375 12.6562 1.75 11.5938 1.375 10.4062C0.9375 9.09375 0.875 7.75 1.15625 6.34375C1.46875 4.8125 2.1875 3.46875 3.34375 2.34375C4.46875 1.21875 5.8125 0.46875 7.375 0.15625ZM4 10C4.25 10 4.5 9.90625 4.6875 9.71875C4.875 9.53125 5 9.28125 5 9C5 8.75 4.875 8.5 4.6875 8.3125C4.5 8.125 4.25 8 4 8C3.71875 8 3.46875 8.125 3.28125 8.3125C3.09375 8.5 3 8.75 3 9C3 9.28125 3.09375 9.53125 3.28125 9.71875C3.46875 9.90625 3.71875 10 4 10ZM5 6C5.25 6 5.5 5.90625 5.6875 5.71875C5.875 5.53125 6 5.28125 6 5C6 4.75 5.875 4.5 5.6875 4.3125C5.5 4.125 5.25 4 5 4C4.71875 4 4.46875 4.125 4.28125 4.3125C4.09375 4.5 4 4.75 4 5C4 5.28125 4.09375 5.53125 4.28125 5.71875C4.46875 5.90625 4.71875 6 5 6ZM9 4C9.25 4 9.5 3.90625 9.6875 3.71875C9.875 3.53125 10 3.28125 10 3C10 2.75 9.875 2.5 9.6875 2.3125C9.5 2.125 9.25 2 9 2C8.71875 2 8.46875 2.125 8.28125 2.3125C8.09375 2.5 8 2.75 8 3C8 3.28125 8.09375 3.53125 8.28125 3.71875C8.46875 3.90625 8.71875 4 9 4ZM13 6C13.25 6 13.5 5.90625 13.6875 5.71875C13.875 5.53125 14 5.28125 14 5C14 4.75 13.875 4.5 13.6875 4.3125C13.5 4.125 13.25 4 13 4C12.7188 4 12.4688 4.125 12.2812 4.3125C12.0938 4.5 12 4.75 12 5C12 5.28125 12.0938 5.53125 12.2812 5.71875C12.4688 5.90625 12.7188 6 13 6Z" fill="white"/>
</svg>
