<svg width="24" height="24" viewBox="0 0 24 24" fill="none" xmlns="http://www.w3.org/2000/svg">
<rect width="24" height="24" rx="12" fill="#4D9EF6"/>
<path d="M11.75 12C11.1875 12 10.6953 11.8828 10.2266 11.6016C9.75781 11.3438 9.40625 10.9922 9.14844 10.5234C8.86719 10.0547 8.75 9.5625 8.75 9C8.75 8.46094 8.86719 7.96875 9.14844 7.5C9.40625 7.03125 9.75781 6.67969 10.2266 6.39844C10.6953 6.14062 11.1875 6 11.75 6C12.2891 6 12.7812 6.14062 13.25 6.39844C13.7188 6.67969 14.0703 7.03125 14.3516 7.5C14.6094 7.96875 14.75 8.46094 14.75 9C14.75 9.5625 14.6094 10.0547 14.3516 10.5234C14.0703 10.9922 13.7188 11.3438 13.25 11.6016C12.7812 11.8828 12.2891 12 11.75 12ZM13.8594 12.75C14.4219 12.75 14.9375 12.8906 15.4297 13.1719C15.8984 13.4531 16.2969 13.8516 16.5781 14.3203C16.8594 14.8125 17 15.3281 17 15.8906V16.875C17 17.2031 16.8828 17.4609 16.6719 17.6719C16.4375 17.9062 16.1797 18 15.875 18H7.625C7.29688 18 7.03906 17.9062 6.82812 17.6719C6.59375 17.4609 6.5 17.2031 6.5 16.875V15.8906C6.5 15.3281 6.64062 14.8125 6.92188 14.3203C7.20312 13.8516 7.57812 13.4531 8.07031 13.1719C8.53906 12.8906 9.07812 12.75 9.64062 12.75H10.0391C10.5781 13.0078 11.1406 13.125 11.75 13.125C12.3359 13.125 12.8984 13.0078 13.4609 12.75H13.8594Z" fill="white"/>
</svg>
