<svg width="12" height="12" viewBox="0 0 12 12" fill="none" xmlns="http://www.w3.org/2000/svg">
<path d="M11.5547 0.585938C11.6953 0.609375 11.7891 0.679688 11.8828 0.773438C11.9531 0.890625 12 1.00781 12 1.125C12 3.09375 11.5078 4.92188 10.5234 6.60938C9.53906 8.25 8.25 9.5625 6.60938 10.5234C4.92188 11.5078 3.09375 12 1.125 12C0.984375 12 0.867188 11.9766 0.773438 11.8828C0.65625 11.8125 0.585938 11.6953 0.585938 11.5547L0.0234375 9.11719C-0.0234375 9 0 8.88281 0.0703125 8.74219C0.117188 8.625 0.210938 8.53125 0.351562 8.48438L2.97656 7.35938C3.07031 7.3125 3.1875 7.3125 3.32812 7.33594C3.44531 7.35938 3.53906 7.42969 3.63281 7.52344L4.78125 8.92969C5.69531 8.50781 6.51562 7.94531 7.21875 7.21875C7.92188 6.51562 8.50781 5.69531 8.92969 4.78125L7.52344 3.60938C7.42969 3.53906 7.35938 3.44531 7.33594 3.32812C7.28906 3.21094 7.3125 3.09375 7.35938 2.95312L8.48438 0.328125C8.53125 0.234375 8.60156 0.140625 8.74219 0.0703125C8.85938 0.0234375 8.97656 0 9.11719 0.0234375L11.5547 0.585938Z" fill="#1D1D1D"/>
</svg>
