<svg width="16" height="16" viewBox="0 0 16 16" fill="none" xmlns="http://www.w3.org/2000/svg">
<path d="M14.5 6C14.9062 6 15.25 6.15625 15.5625 6.4375C15.8438 6.75 16 7.09375 16 7.5V11.625C16 11.75 15.9375 11.8438 15.875 11.9062C15.8125 11.9688 15.7188 12 15.625 12H14V15.25C14 15.4688 13.9062 15.6562 13.7812 15.7812C13.625 15.9375 13.4375 16 13.25 16H2.75C2.53125 16 2.34375 15.9375 2.21875 15.7812C2.0625 15.6562 2 15.4688 2 15.25V12H0.375C0.25 12 0.15625 11.9688 0.09375 11.9062C0.03125 11.8438 0 11.75 0 11.625V7.5C0 7.09375 0.125 6.75 0.4375 6.4375C0.71875 6.15625 1.0625 6 1.5 6H2V0.75C2 0.5625 2.0625 0.375 2.21875 0.21875C2.34375 0.09375 2.53125 0 2.75 0H11.4375C11.625 0 11.8125 0.09375 11.9688 0.21875L13.7812 2.03125C13.9062 2.1875 14 2.375 14 2.5625V6H14.5ZM12 14V11H4V14H12ZM4 7H12V4H10.75C10.5312 4 10.3438 3.9375 10.2188 3.78125C10.0625 3.65625 10 3.46875 10 3.25V2H4V7ZM13.5 9.25C13.6875 9.25 13.875 9.1875 14.0312 9.03125C14.1562 8.90625 14.25 8.71875 14.25 8.5C14.25 8.3125 14.1562 8.125 14.0312 7.96875C13.875 7.84375 13.6875 7.75 13.5 7.75C13.2812 7.75 13.0938 7.84375 12.9688 7.96875C12.8125 8.125 12.75 8.3125 12.75 8.5C12.75 8.71875 12.8125 8.90625 12.9688 9.03125C13.0938 9.1875 13.2812 9.25 13.5 9.25Z" fill="white"/>
</svg>
