<svg width="24" height="24" viewBox="0 0 24 24" fill="none" xmlns="http://www.w3.org/2000/svg">
<rect width="24" height="24" rx="12" fill="#7B7463"/>
<path d="M16.4297 12.8203C16.5234 12.2812 16.5234 11.7422 16.4297 11.1797L17.4141 10.5938C17.4609 10.5703 17.5078 10.5234 17.5312 10.4531C17.5547 10.4062 17.5547 10.3359 17.5547 10.2656C17.2734 9.44531 16.8516 8.71875 16.2656 8.0625C16.2188 8.01562 16.1484 7.99219 16.1016 7.96875C16.0312 7.96875 15.9609 7.96875 15.9141 7.99219L14.9297 8.57812C14.5078 8.22656 14.0156 7.94531 13.5 7.75781V6.60938C13.5 6.5625 13.4766 6.49219 13.4297 6.44531C13.3828 6.39844 13.3359 6.35156 13.2891 6.32812C12.4219 6.14062 11.5547 6.14062 10.7109 6.32812C10.6406 6.35156 10.5938 6.39844 10.5469 6.44531C10.5 6.49219 10.5 6.5625 10.5 6.60938V7.75781C9.96094 7.94531 9.49219 8.22656 9.07031 8.57812L8.08594 7.99219C8.01562 7.96875 7.94531 7.96875 7.89844 7.96875C7.82812 7.99219 7.78125 8.01562 7.73438 8.0625C7.125 8.71875 6.70312 9.44531 6.44531 10.2656C6.42188 10.3359 6.42188 10.4062 6.44531 10.4531C6.46875 10.5234 6.51562 10.5703 6.58594 10.5938L7.57031 11.1797C7.47656 11.7422 7.47656 12.2812 7.57031 12.8203L6.58594 13.4062C6.51562 13.4531 6.46875 13.5 6.44531 13.5469C6.42188 13.6172 6.42188 13.6875 6.44531 13.7344C6.70312 14.5781 7.125 15.3047 7.73438 15.9375C7.78125 15.9844 7.82812 16.0312 7.89844 16.0312C7.94531 16.0547 8.01562 16.0547 8.08594 16.0078L9.07031 15.4219C9.49219 15.7969 9.96094 16.0547 10.5 16.2422V17.3906C10.5 17.4609 10.5 17.5312 10.5469 17.5781C10.5938 17.625 10.6406 17.6719 10.7109 17.6719C11.5547 17.8594 12.4219 17.8594 13.2891 17.6719C13.3359 17.6719 13.3828 17.625 13.4297 17.5781C13.4766 17.5312 13.5 17.4609 13.5 17.3906V16.2422C14.0156 16.0547 14.5078 15.7969 14.9297 15.4219L15.9141 16.0078C15.9609 16.0547 16.0312 16.0547 16.1016 16.0312C16.1484 16.0312 16.2188 15.9844 16.2656 15.9375C16.8516 15.3047 17.2734 14.5781 17.5547 13.7344C17.5547 13.6875 17.5547 13.6172 17.5312 13.5469C17.5078 13.5 17.4609 13.4531 17.4141 13.4062L16.4297 12.8203ZM13.875 12C13.875 12.5156 13.6875 12.9609 13.3125 13.3359C12.9375 13.7109 12.5156 13.875 12 13.875C11.4844 13.875 11.0391 13.7109 10.6641 13.3359C10.2891 12.9609 10.125 12.5156 10.125 12C10.125 11.4844 10.2891 11.0625 10.6641 10.6875C11.0391 10.3125 11.4844 10.125 12 10.125C12.5156 10.125 12.9375 10.3125 13.3125 10.6875C13.6875 11.0625 13.875 11.4844 13.875 12Z" fill="white"/>
</svg>
