<svg width="18" height="12" viewBox="0 0 18 12" fill="none" xmlns="http://www.w3.org/2000/svg">
<path d="M4 3V9H14V3H4ZM16.5 6C16.5 5.59375 16.625 5.25 16.9375 4.9375C17.2188 4.65625 17.5625 4.5 18 4.5V1.5C18 1.09375 17.8438 0.75 17.5625 0.4375C17.25 0.15625 16.9062 0 16.5 0H1.5C1.0625 0 0.71875 0.15625 0.4375 0.4375C0.125 0.75 0 1.09375 0 1.5V4.5C0.40625 4.5 0.75 4.65625 1.0625 4.9375C1.34375 5.25 1.5 5.59375 1.5 6C1.5 6.4375 1.34375 6.78125 1.0625 7.0625C0.75 7.375 0.40625 7.5 0 7.5V10.5C0 10.9375 0.125 11.2812 0.4375 11.5625C0.71875 11.875 1.0625 12 1.5 12H16.5C16.9062 12 17.25 11.875 17.5625 11.5625C17.8438 11.2812 18 10.9375 18 10.5V7.5C17.5625 7.5 17.2188 7.375 16.9375 7.0625C16.625 6.78125 16.5 6.4375 16.5 6ZM15 2.75V9.25C15 9.46875 14.9062 9.65625 14.7812 9.78125C14.625 9.9375 14.4375 10 14.25 10H3.75C3.53125 10 3.34375 9.9375 3.21875 9.78125C3.0625 9.65625 3 9.46875 3 9.25V2.75C3 2.5625 3.0625 2.375 3.21875 2.21875C3.34375 2.09375 3.53125 2 3.75 2H14.25C14.4375 2 14.625 2.09375 14.7812 2.21875C14.9062 2.375 15 2.5625 15 2.75Z" fill="white"/>
</svg>
