<svg width="20" height="16" viewBox="0 0 20 16" fill="none" xmlns="http://www.w3.org/2000/svg">
<path d="M18.5 0C18.9062 0 19.25 0.15625 19.5625 0.4375C19.8438 0.75 20 1.09375 20 1.5V11.5C20 11.9375 19.8438 12.2812 19.5625 12.5625C19.25 12.875 18.9062 13 18.5 13H11.1562V14H16.1562C16.4062 14 16.6562 14.125 16.8438 14.3125C17.0312 14.5 17.1562 14.75 17.1562 15C17.1562 15.2812 17.0312 15.5312 16.8438 15.7188C16.6562 15.9062 16.4062 16 16.1562 16H4.15625C3.875 16 3.625 15.9062 3.4375 15.7188C3.25 15.5312 3.15625 15.2812 3.15625 15C3.15625 14.75 3.25 14.5 3.4375 14.3125C3.625 14.125 3.875 14 4.15625 14H9.15625V13H1.5C1.0625 13 0.71875 12.875 0.4375 12.5625C0.125 12.2812 0 11.9375 0 11.5V1.5C0 1.09375 0.125 0.75 0.4375 0.4375C0.71875 0.15625 1.0625 0 1.5 0H18.5ZM18 11V2H2V11H18Z" fill="white"/>
</svg>
