<svg width="40" height="40" viewBox="0 0 40 40" fill="none" xmlns="http://www.w3.org/2000/svg">
<rect width="40" height="40" rx="20" fill="#57BF56"/>
<path d="M19.375 12.1562C21.0312 11.8437 22.625 12 24.1562 12.6562C25.5937 13.2812 26.75 14.25 27.6562 15.5625C28.5312 16.875 29 18.3437 29 19.9687C29 20.5312 28.7812 21.0312 28.4062 21.4062C28 21.8125 27.5312 22 26.9687 22H24.4687C23.9687 22 23.5 22.1562 23.125 22.4687C22.75 22.7812 22.5 23.1875 22.375 23.6562C22.25 24.1562 22.3437 24.625 22.5937 25.0625C22.7812 25.4687 22.8437 25.875 22.7812 26.2812C22.7187 26.7187 22.5312 27.0625 22.2812 27.375C22 27.6875 21.6562 27.875 21.25 27.9375C20.25 28.0937 19.2187 27.9687 18.1562 27.5312C17.0625 27.0937 16.0937 26.4375 15.2812 25.5625C14.375 24.6562 13.75 23.5937 13.375 22.4062C12.9375 21.0937 12.875 19.75 13.1562 18.3437C13.4687 16.8125 14.1875 15.4687 15.3437 14.3437C16.4687 13.2187 17.8125 12.4687 19.375 12.1562ZM16 22C16.25 22 16.5 21.9062 16.6875 21.7187C16.875 21.5312 17 21.2812 17 21C17 20.75 16.875 20.5 16.6875 20.3125C16.5 20.125 16.25 20 16 20C15.7187 20 15.4687 20.125 15.2812 20.3125C15.0937 20.5 15 20.75 15 21C15 21.2812 15.0937 21.5312 15.2812 21.7187C15.4687 21.9062 15.7187 22 16 22ZM17 18C17.25 18 17.5 17.9062 17.6875 17.7187C17.875 17.5312 18 17.2812 18 17C18 16.75 17.875 16.5 17.6875 16.3125C17.5 16.125 17.25 16 17 16C16.7187 16 16.4687 16.125 16.2812 16.3125C16.0937 16.5 16 16.75 16 17C16 17.2812 16.0937 17.5312 16.2812 17.7187C16.4687 17.9062 16.7187 18 17 18ZM21 16C21.25 16 21.5 15.9062 21.6875 15.7187C21.875 15.5312 22 15.2812 22 15C22 14.75 21.875 14.5 21.6875 14.3125C21.5 14.125 21.25 14 21 14C20.7187 14 20.4687 14.125 20.2812 14.3125C20.0937 14.5 20 14.75 20 15C20 15.2812 20.0937 15.5312 20.2812 15.7187C20.4687 15.9062 20.7187 16 21 16ZM25 18C25.25 18 25.5 17.9062 25.6875 17.7187C25.875 17.5312 26 17.2812 26 17C26 16.75 25.875 16.5 25.6875 16.3125C25.5 16.125 25.25 16 25 16C24.7187 16 24.4687 16.125 24.2812 16.3125C24.0937 16.5 24 16.75 24 17C24 17.2812 24.0937 17.5312 24.2812 17.7187C24.4687 17.9062 24.7187 18 25 18Z" fill="white"/>
</svg>
