<svg width="40" height="40" viewBox="0 0 40 40" fill="none" xmlns="http://www.w3.org/2000/svg">
<rect width="40" height="40" rx="20" fill="#1D1D1D"/>
<path d="M26.625 27C26.7188 27 26.8125 27.0625 26.875 27.125C26.9375 27.1875 27 27.2812 27 27.375V28H13V27.375C13 27.2812 13.0312 27.1875 13.0938 27.125C13.1562 27.0625 13.25 27 13.375 27H14V12.75C14 12.5625 14.0625 12.375 14.2188 12.2188C14.3438 12.0938 14.5312 12 14.75 12H25.25C25.4375 12 25.625 12.0938 25.7812 12.2188C25.9062 12.375 26 12.5625 26 12.75V27H26.625ZM17 14.375V15.625C17 15.75 17.0312 15.8438 17.0938 15.9062C17.1562 15.9688 17.25 16 17.375 16H18.625C18.7188 16 18.8125 15.9688 18.875 15.9062C18.9375 15.8438 19 15.75 19 15.625V14.375C19 14.2812 18.9375 14.1875 18.875 14.125C18.8125 14.0625 18.7188 14 18.625 14H17.375C17.25 14 17.1562 14.0625 17.0938 14.125C17.0312 14.1875 17 14.2812 17 14.375ZM17 17.375V18.625C17 18.75 17.0312 18.8438 17.0938 18.9062C17.1562 18.9688 17.25 19 17.375 19H18.625C18.7188 19 18.8125 18.9688 18.875 18.9062C18.9375 18.8438 19 18.75 19 18.625V17.375C19 17.2812 18.9375 17.1875 18.875 17.125C18.8125 17.0625 18.7188 17 18.625 17H17.375C17.25 17 17.1562 17.0625 17.0938 17.125C17.0312 17.1875 17 17.2812 17 17.375ZM18.625 22C18.7188 22 18.8125 21.9688 18.875 21.9062C18.9375 21.8438 19 21.75 19 21.625V20.375C19 20.2812 18.9375 20.1875 18.875 20.125C18.8125 20.0625 18.7188 20 18.625 20H17.375C17.25 20 17.1562 20.0625 17.0938 20.125C17.0312 20.1875 17 20.2812 17 20.375V21.625C17 21.75 17.0312 21.8438 17.0938 21.9062C17.1562 21.9688 17.25 22 17.375 22H18.625ZM21 27V24.375C21 24.2812 20.9375 24.1875 20.875 24.125C20.8125 24.0625 20.7188 24 20.625 24H19.375C19.25 24 19.1562 24.0625 19.0938 24.125C19.0312 24.1875 19 24.2812 19 24.375V27H21ZM23 21.625V20.375C23 20.2812 22.9375 20.1875 22.875 20.125C22.8125 20.0625 22.7188 20 22.625 20H21.375C21.25 20 21.1562 20.0625 21.0938 20.125C21.0312 20.1875 21 20.2812 21 20.375V21.625C21 21.75 21.0312 21.8438 21.0938 21.9062C21.1562 21.9688 21.25 22 21.375 22H22.625C22.7188 22 22.8125 21.9688 22.875 21.9062C22.9375 21.8438 23 21.75 23 21.625ZM23 18.625V17.375C23 17.2812 22.9375 17.1875 22.875 17.125C22.8125 17.0625 22.7188 17 22.625 17H21.375C21.25 17 21.1562 17.0625 21.0938 17.125C21.0312 17.1875 21 17.2812 21 17.375V18.625C21 18.75 21.0312 18.8438 21.0938 18.9062C21.1562 18.9688 21.25 19 21.375 19H22.625C22.7188 19 22.8125 18.9688 22.875 18.9062C22.9375 18.8438 23 18.75 23 18.625ZM23 15.625V14.375C23 14.2812 22.9375 14.1875 22.875 14.125C22.8125 14.0625 22.7188 14 22.625 14H21.375C21.25 14 21.1562 14.0625 21.0938 14.125C21.0312 14.1875 21 14.2812 21 14.375V15.625C21 15.75 21.0312 15.8438 21.0938 15.9062C21.1562 15.9688 21.25 16 21.375 16H22.625C22.7188 16 22.8125 15.9688 22.875 15.9062C22.9375 15.8438 23 15.75 23 15.625Z" fill="white"/>
</svg>
