<svg width="40" height="40" viewBox="0 0 40 40" fill="none" xmlns="http://www.w3.org/2000/svg">
<rect width="40" height="40" rx="20" fill="#FFB700"/>
<path d="M15 17V23H25V17H15ZM27.5 20C27.5 19.5938 27.625 19.25 27.9375 18.9375C28.2188 18.6562 28.5625 18.5 29 18.5V15.5C29 15.0938 28.8438 14.75 28.5625 14.4375C28.25 14.1562 27.9062 14 27.5 14H12.5C12.0625 14 11.7188 14.1562 11.4375 14.4375C11.125 14.75 11 15.0938 11 15.5V18.5C11.4062 18.5 11.75 18.6562 12.0625 18.9375C12.3438 19.25 12.5 19.5938 12.5 20C12.5 20.4375 12.3438 20.7812 12.0625 21.0625C11.75 21.375 11.4062 21.5 11 21.5V24.5C11 24.9375 11.125 25.2812 11.4375 25.5625C11.7188 25.875 12.0625 26 12.5 26H27.5C27.9062 26 28.25 25.875 28.5625 25.5625C28.8438 25.2812 29 24.9375 29 24.5V21.5C28.5625 21.5 28.2188 21.375 27.9375 21.0625C27.625 20.7812 27.5 20.4375 27.5 20ZM26 16.75V23.25C26 23.4688 25.9062 23.6562 25.7812 23.7812C25.625 23.9375 25.4375 24 25.25 24H14.75C14.5312 24 14.3438 23.9375 14.2188 23.7812C14.0625 23.6562 14 23.4688 14 23.25V16.75C14 16.5625 14.0625 16.375 14.2188 16.2188C14.3438 16.0938 14.5312 16 14.75 16H25.25C25.4375 16 25.625 16.0938 25.7812 16.2188C25.9062 16.375 26 16.5625 26 16.75Z" fill="white"/>
</svg>
