<svg width="40" height="40" viewBox="0 0 40 40" fill="none" xmlns="http://www.w3.org/2000/svg">
<rect width="40" height="40" rx="20" fill="#CC64F0"/>
<path d="M25.5 26C25.625 26 25.75 26.0625 25.8438 26.1562C25.9375 26.25 26 26.375 26 26.5V27.5C26 27.6562 25.9375 27.7812 25.8438 27.875C25.75 27.9688 25.625 28 25.5 28H14.5C14.3438 28 14.2188 27.9688 14.125 27.875C14.0312 27.7812 14 27.6562 14 27.5V26.5C14 26.375 14.0312 26.25 14.125 26.1562C14.2188 26.0625 14.3438 26 14.5 26H25.5ZM23.0312 15.1562L24 25H16L16.9688 15.1562C16.9688 14.9062 17.0625 14.7188 17.25 14.5312L19.6562 12.1562C19.7188 12.0625 19.8438 12 20 12C20.125 12 20.25 12.0625 20.3438 12.1562L22.75 14.5312C22.9062 14.7188 23 14.9062 23.0312 15.1562ZM21.5 21.5938V20.4062C21.5 20.3125 21.4375 20.2188 21.375 20.125C21.2812 20.0625 21.1875 20 21.0938 20H18.9062C18.7812 20 18.6875 20.0625 18.625 20.125C18.5312 20.2188 18.5 20.3125 18.5 20.4062V21.5938C18.5 21.7188 18.5312 21.8125 18.625 21.875C18.6875 21.9688 18.7812 22 18.9062 22H21.0938C21.1875 22 21.2812 21.9688 21.375 21.875C21.4375 21.8125 21.5 21.7188 21.5 21.5938Z" fill="white"/>
</svg>
