<svg width="40" height="40" viewBox="0 0 40 40" fill="none" xmlns="http://www.w3.org/2000/svg">
<rect width="40" height="40" rx="20" fill="#F81C85"/>
<path d="M28.5 12C28.9062 12 29.25 12.1562 29.5625 12.4375C29.8438 12.75 30 13.0938 30 13.5V23.5C30 23.9375 29.8438 24.2812 29.5625 24.5625C29.25 24.875 28.9062 25 28.5 25H21.1562V26H26.1562C26.4062 26 26.6562 26.125 26.8438 26.3125C27.0312 26.5 27.1562 26.75 27.1562 27C27.1562 27.2812 27.0312 27.5312 26.8438 27.7188C26.6562 27.9062 26.4062 28 26.1562 28H14.1562C13.875 28 13.625 27.9062 13.4375 27.7188C13.25 27.5312 13.1562 27.2812 13.1562 27C13.1562 26.75 13.25 26.5 13.4375 26.3125C13.625 26.125 13.875 26 14.1562 26H19.1562V25H11.5C11.0625 25 10.7188 24.875 10.4375 24.5625C10.125 24.2812 10 23.9375 10 23.5V13.5C10 13.0938 10.125 12.75 10.4375 12.4375C10.7188 12.1562 11.0625 12 11.5 12H28.5ZM28 23V14H12V23H28Z" fill="white"/>
</svg>
