<svg width="40" height="40" viewBox="0 0 40 40" fill="none" xmlns="http://www.w3.org/2000/svg">
<rect width="40" height="40" rx="20" fill="#5080B9"/>
<path d="M22.25 20C22.25 19.375 22.0312 18.8438 21.5938 18.4062C21.1562 17.9688 20.625 17.75 20 17.75C19.375 17.75 18.8438 17.9688 18.4062 18.4062C17.9688 18.8438 17.75 19.375 17.75 20C17.75 20.625 17.9688 21.1562 18.4062 21.5938C18.8438 22.0312 19.375 22.25 20 22.25C20.625 22.25 21.1562 22.0312 21.5938 21.5938C22.0312 21.1562 22.25 20.625 22.25 20ZM25.5 17.75C26.125 17.75 26.6562 17.9688 27.0938 18.4062C27.5312 18.8438 27.75 19.375 27.75 20C27.75 20.625 27.5312 21.1562 27.0938 21.5938C26.6562 22.0312 26.125 22.25 25.5 22.25C24.875 22.25 24.3438 22.0312 23.9062 21.5938C23.4688 21.1562 23.25 20.625 23.25 20C23.25 19.375 23.4688 18.8438 23.9062 18.4062C24.3438 17.9688 24.875 17.75 25.5 17.75ZM14.5 17.75C15.125 17.75 15.6562 17.9688 16.0938 18.4062C16.5312 18.8438 16.75 19.375 16.75 20C16.75 20.625 16.5312 21.1562 16.0938 21.5938C15.6562 22.0312 15.125 22.25 14.5 22.25C13.875 22.25 13.3438 22.0312 12.9062 21.5938C12.4688 21.1562 12.25 20.625 12.25 20C12.25 19.375 12.4688 18.8438 12.9062 18.4062C13.3438 17.9688 13.875 17.75 14.5 17.75Z" fill="white"/>
</svg>
