<svg width="40" height="40" viewBox="0 0 40 40" fill="none" xmlns="http://www.w3.org/2000/svg">
<rect width="40" height="40" rx="20" fill="#7B7463"/>
<path d="M26.5 18C26.9062 18 27.25 18.1562 27.5625 18.4375C27.8438 18.75 28 19.0938 28 19.5V23.625C28 23.75 27.9375 23.8438 27.875 23.9062C27.8125 23.9688 27.7188 24 27.625 24H26V27.25C26 27.4688 25.9062 27.6562 25.7812 27.7812C25.625 27.9375 25.4375 28 25.25 28H14.75C14.5312 28 14.3438 27.9375 14.2188 27.7812C14.0625 27.6562 14 27.4688 14 27.25V24H12.375C12.25 24 12.1562 23.9688 12.0938 23.9062C12.0312 23.8438 12 23.75 12 23.625V19.5C12 19.0938 12.125 18.75 12.4375 18.4375C12.7188 18.1562 13.0625 18 13.5 18H14V12.75C14 12.5625 14.0625 12.375 14.2188 12.2188C14.3438 12.0938 14.5312 12 14.75 12H23.4375C23.625 12 23.8125 12.0938 23.9688 12.2188L25.7812 14.0312C25.9062 14.1875 26 14.375 26 14.5625V18H26.5ZM24 26V23H16V26H24ZM16 19H24V16H22.75C22.5312 16 22.3438 15.9375 22.2188 15.7812C22.0625 15.6562 22 15.4688 22 15.25V14H16V19ZM25.5 21.25C25.6875 21.25 25.875 21.1875 26.0312 21.0312C26.1562 20.9062 26.25 20.7188 26.25 20.5C26.25 20.3125 26.1562 20.125 26.0312 19.9688C25.875 19.8438 25.6875 19.75 25.5 19.75C25.2812 19.75 25.0938 19.8438 24.9688 19.9688C24.8125 20.125 24.75 20.3125 24.75 20.5C24.75 20.7188 24.8125 20.9062 24.9688 21.0312C25.0938 21.1875 25.2812 21.25 25.5 21.25Z" fill="white"/>
</svg>
