<svg width="16" height="14" viewBox="0 0 16 14" fill="none" xmlns="http://www.w3.org/2000/svg">
<path d="M15.625 2.875C15.7188 2.875 15.8125 2.84375 15.875 2.78125C15.9375 2.71875 16 2.625 16 2.5V1.5C16 1.40625 15.9375 1.3125 15.875 1.25C15.8125 1.1875 15.7188 1.125 15.625 1.125H4.375C4.25 1.125 4.15625 1.1875 4.09375 1.25C4.03125 1.3125 4 1.40625 4 1.5V2.5C4 2.625 4.03125 2.71875 4.09375 2.78125C4.15625 2.84375 4.25 2.875 4.375 2.875H15.625ZM16 7.5C16 7.625 15.9375 7.71875 15.875 7.78125C15.8125 7.84375 15.7188 7.875 15.625 7.875H4.375C4.25 7.875 4.15625 7.84375 4.09375 7.78125C4.03125 7.71875 4 7.625 4 7.5V6.5C4 6.40625 4.03125 6.3125 4.09375 6.25C4.15625 6.1875 4.25 6.125 4.375 6.125H15.625C15.7188 6.125 15.8125 6.1875 15.875 6.25C15.9375 6.3125 16 6.40625 16 6.5V7.5ZM16 12.5C16 12.625 15.9375 12.7188 15.875 12.7812C15.8125 12.8438 15.7188 12.875 15.625 12.875H4.375C4.25 12.875 4.15625 12.8438 4.09375 12.7812C4.03125 12.7188 4 12.625 4 12.5V11.5C4 11.4062 4.03125 11.3125 4.09375 11.25C4.15625 11.1875 4.25 11.125 4.375 11.125H15.625C15.7188 11.125 15.8125 11.1875 15.875 11.25C15.9375 11.3125 16 11.4062 16 11.5V12.5ZM2.875 3C2.875 3.125 2.8125 3.21875 2.75 3.28125C2.6875 3.34375 2.59375 3.375 2.5 3.375H0.5C0.375 3.375 0.28125 3.34375 0.21875 3.28125C0.15625 3.21875 0.125 3.125 0.125 3V1C0.125 0.90625 0.15625 0.8125 0.21875 0.75C0.28125 0.6875 0.375 0.625 0.5 0.625H2.5C2.59375 0.625 2.6875 0.6875 2.75 0.75C2.8125 0.8125 2.875 0.90625 2.875 1V3ZM2.875 8C2.875 8.125 2.8125 8.21875 2.75 8.28125C2.6875 8.34375 2.59375 8.375 2.5 8.375H0.5C0.375 8.375 0.28125 8.34375 0.21875 8.28125C0.15625 8.21875 0.125 8.125 0.125 8V6C0.125 5.90625 0.15625 5.8125 0.21875 5.75C0.28125 5.6875 0.375 5.625 0.5 5.625H2.5C2.59375 5.625 2.6875 5.6875 2.75 5.75C2.8125 5.8125 2.875 5.90625 2.875 6V8ZM2.875 13C2.875 13.125 2.8125 13.2188 2.75 13.2812C2.6875 13.3438 2.59375 13.375 2.5 13.375H0.5C0.375 13.375 0.28125 13.3438 0.21875 13.2812C0.15625 13.2188 0.125 13.125 0.125 13V11C0.125 10.9062 0.15625 10.8125 0.21875 10.75C0.28125 10.6875 0.375 10.625 0.5 10.625H2.5C2.59375 10.625 2.6875 10.6875 2.75 10.75C2.8125 10.8125 2.875 10.9062 2.875 11V13Z" fill="#0D87FF"/>
</svg>
